<svg viewBox="0 0 32 32" fill="currentColor" width="32" height="32" xmlns="http://www.w3.org/2000/svg" xmlns:xlink="http://www.w3.org/1999/xlink">
    <path d="M15.5 3C8.044 3 2 9.044 2 16.5S8.044 30 15.5 30 29 23.956 29 16.5 22.956 3 15.5 3zM15.5 27C9.701 27 5 22.299 5 16.5S9.701 6 15.5 6 26 10.701 26 16.5 21.299 27 15.5 27zM15.5 10c-0.828 0-1.5 0.671-1.5 1.5v5.062c0 0.828 0.672 1.5 1.5 1.5s1.5-0.672 1.5-1.5V11.5c0-0.829-0.672-1.5-1.5-1.5zM15.5 20c-0.828 0-1.5 0.672-1.5 1.5s0.672 1.5 1.5 1.5 1.5-0.672 1.5-1.5-0.672-1.5-1.5-1.5z" />
</svg>